<svg width="45" height="45" viewBox="0 0 45 45" fill="none" xmlns="http://www.w3.org/2000/svg">
<path d="M22.5 45C34.9264 45 45 34.9264 45 22.5C45 10.0736 34.9264 0 22.5 0C10.0736 0 0 10.0736 0 22.5C0 34.9264 10.0736 45 22.5 45Z" fill="url(#paint0_linear_1_15836)"/>
<path d="M29.4922 13.9829C28.6024 13.9829 27.9668 14.6185 27.9668 15.5083C27.9668 16.3982 28.6024 17.0338 29.4922 17.0338C30.3821 17.0338 31.0176 16.3982 31.0176 15.5083C31.0176 14.6185 30.3821 13.9829 29.4922 13.9829Z" fill="white"/>
<path d="M22.6286 15.8896C19.0692 15.8896 16.1455 18.8134 16.1455 22.3727C16.1455 25.932 19.0692 28.8558 22.6286 28.8558C26.1879 28.8558 29.1116 25.932 29.1116 22.3727C29.1116 18.8134 26.1879 15.8896 22.6286 15.8896ZM22.6286 26.5676C20.3404 26.5676 18.4336 24.6608 18.4336 22.3727C18.4336 20.0846 20.3404 18.1778 22.6286 18.1778C24.9167 18.1778 26.8235 20.0846 26.8235 22.3727C26.6964 24.788 24.9167 26.5676 22.6286 26.5676Z" fill="white"/>
<path d="M27.7125 35.5931H17.1616C12.8396 35.5931 9.28027 32.0338 9.28027 27.7117V17.1609C9.28027 12.8389 12.8396 9.27954 17.1616 9.27954H27.7125C32.0345 9.27954 35.5938 12.8389 35.5938 17.1609V27.7117C35.721 32.0338 32.1616 35.5931 27.7125 35.5931ZM17.1616 11.6948C14.1108 11.6948 11.6955 14.11 11.6955 17.1609V27.7117C11.6955 30.7626 14.1108 33.1778 17.1616 33.1778H27.7125C30.7633 33.1778 33.1786 30.7626 33.1786 27.7117V17.1609C33.1786 14.11 30.7633 11.6948 27.7125 11.6948H17.1616Z" fill="white"/>
<defs>
<linearGradient id="paint0_linear_1_15836" x1="1.42322" y1="4.67364" x2="46.3909" y2="42.6533" gradientUnits="userSpaceOnUse">
<stop offset="0.0011048" stop-color="#FBE18A"/>
<stop offset="0.2094" stop-color="#FCBB45"/>
<stop offset="0.3765" stop-color="#F75274"/>
<stop offset="0.5238" stop-color="#D53692"/>
<stop offset="0.7394" stop-color="#8F39CE"/>
<stop offset="1" stop-color="#5B4FE9"/>
</linearGradient>
</defs>
</svg>
