<svg width="27" height="28" viewBox="0 0 27 28" fill="none" xmlns="http://www.w3.org/2000/svg">
<path d="M11.8016 2.97296L6.19375 5.08574C4.90136 5.56898 3.84497 7.09737 3.84497 8.46843V16.8184C3.84497 18.1445 4.72155 19.8864 5.78918 20.6843L10.6216 24.2918C12.2062 25.483 14.8134 25.483 16.398 24.2918L21.2304 20.6843C22.2981 19.8864 23.1747 18.1445 23.1747 16.8184V8.46843C23.1747 7.08613 22.1183 5.55774 20.8259 5.0745L15.218 2.97296C14.2628 2.62457 12.7344 2.62457 11.8016 2.97296Z" stroke="#EB3474" stroke-width="1.68573" stroke-linecap="round" stroke-linejoin="round"/>
<path d="M13.4989 14.5146C14.7402 14.5146 15.7465 13.5083 15.7465 12.2669C15.7465 11.0256 14.7402 10.0193 13.4989 10.0193C12.2575 10.0193 11.2512 11.0256 11.2512 12.2669C11.2512 13.5083 12.2575 14.5146 13.4989 14.5146Z" stroke="#EB3474" stroke-width="1.68573" stroke-miterlimit="10" stroke-linecap="round" stroke-linejoin="round"/>
<path d="M13.4988 14.5146V17.8861" stroke="#EB3474" stroke-width="1.68573" stroke-miterlimit="10" stroke-linecap="round" stroke-linejoin="round"/>
</svg>
