<svg width="45" height="45" viewBox="0 0 45 45" fill="none" xmlns="http://www.w3.org/2000/svg">
<path d="M22.5 45C34.9264 45 45 34.9264 45 22.5C45 10.0736 34.9264 0 22.5 0C10.0736 0 0 10.0736 0 22.5C0 34.9264 10.0736 45 22.5 45Z" fill="#33CCFF"/>
<path d="M34.9584 14.7456C34.1957 15.1269 33.3058 15.2541 32.416 15.5083C32.7973 15.3812 33.4329 14.7456 33.6872 14.3642C34.0685 13.8557 34.3228 13.4744 34.4499 12.8388V12.7117H34.3228C33.4329 13.2201 32.416 13.6015 31.399 13.8557C31.2719 13.8557 31.2719 13.8557 31.1448 13.8557C31.0177 13.7286 31.0177 13.7286 30.8906 13.6015C30.5092 13.2202 30.0007 12.9659 29.4923 12.7117C28.8567 12.4574 28.094 12.3303 27.3312 12.3303C26.5685 12.3303 25.9329 12.5846 25.2974 12.9659C24.6618 13.3473 24.0262 13.7286 23.6448 14.3642C23.1363 14.9998 22.8821 15.6354 22.6279 16.3981C22.5007 17.1608 22.5007 17.7964 22.6279 18.5591C22.6279 18.6863 22.6279 18.6863 22.5007 18.6863C18.4329 18.0507 15.1279 16.6524 12.4584 13.6015C12.3313 13.4744 12.3313 13.4744 12.2041 13.6015C11.0601 15.3812 11.5685 18.3049 13.094 19.7032C13.3482 19.8303 13.4753 20.0846 13.7296 20.2117C13.6024 20.2117 12.7126 20.0846 11.8228 19.7032C11.6957 19.5761 11.6957 19.7032 11.6957 19.8303C11.6957 20.0846 11.6957 20.2117 11.6957 20.4659C11.9499 22.2456 13.2211 23.8981 14.8736 24.5337C15.1279 24.6608 15.255 24.6608 15.5092 24.7879C15.1279 24.9151 14.7465 24.9151 13.6024 24.7879C13.4753 24.7879 13.3482 24.7879 13.4753 24.9151C14.3652 27.2032 16.1448 27.8388 17.5431 28.2201C17.6702 28.2201 17.9245 28.2201 18.0516 28.3473C17.5431 28.9829 16.0177 29.4913 15.255 29.7456C13.9838 30.2541 12.4584 30.3812 11.0601 30.254C10.8058 30.254 10.8058 30.254 10.6787 30.254C10.6787 30.254 10.6787 30.3812 10.8058 30.3812C11.0601 30.5083 11.4414 30.7625 11.6957 30.8896C12.5855 31.3981 13.4753 31.7795 14.4923 32.0337C19.4499 33.432 25.1702 32.4151 28.8567 28.7286C31.7804 25.8049 32.7973 21.7371 32.7973 17.6693C32.7973 17.5422 32.9245 17.4151 33.0516 17.288C33.8143 16.6524 34.4499 16.0168 34.9584 15.254C34.9584 14.9998 34.9584 14.8727 34.9584 14.7456C34.9584 14.6185 34.9584 14.7456 34.9584 14.7456Z" fill="white"/>
</svg>
